<svg width="806" height="295" viewBox="0 0 806 295" fill="none" xmlns="http://www.w3.org/2000/svg">
<path d="M685.254 93.8375L685.645 107.936C688.708 98.4286 695.038 94.3556 704.964 94.8813L720.704 95.7149L719.931 110.32L705.467 109.554C694.548 108.976 689.733 113.983 689.117 125.61L687.578 154.68L710.691 155.904L709.918 170.509L651.354 167.408L652.127 152.802L671.129 153.808L673.562 107.865L654.56 106.858L655.334 92.253L685.254 93.8375ZM792.334 73.9124L787.002 174.591L771.546 173.773L771.691 162.973C767.158 170.696 759.686 174.851 748.768 174.273C729.057 173.229 719.622 155.381 720.786 133.402C721.95 111.423 733.217 94.6712 752.928 95.715C763.137 96.2557 770.002 100.885 773.993 108.775L775.885 73.0413L792.334 73.9124ZM738.086 134.318C737.387 147.506 742.175 159.135 754.653 159.796C766.99 160.449 773.121 149.398 773.819 136.21C774.533 122.739 769.603 111.102 757.267 110.449C744.788 109.788 738.806 120.705 738.086 134.318Z" fill="#A9A9A9"/>
<path d="M412.356 180V61.43H445.923C474.647 61.43 489.844 72.953 489.844 94.329C489.844 107.522 480.492 117.041 465.963 118.711C483.999 120.381 494.854 130.568 494.854 146.433C494.854 167.642 479.49 180 452.603 180H412.356ZM432.229 161.63H451.935C465.796 161.63 473.979 155.618 473.979 145.264C473.979 134.576 466.297 128.731 451.935 128.731H432.229V161.63ZM432.229 110.695H446.591C461.12 110.695 468.969 105.184 468.969 95.331C468.969 85.311 461.12 79.8 446.591 79.8H432.229V110.695ZM536.205 182.004C511.489 182.004 494.288 163.634 494.288 135.745C494.288 107.856 511.489 89.486 536.205 89.486C560.921 89.486 578.122 107.856 578.122 135.745C578.122 163.634 560.921 182.004 536.205 182.004ZM514.662 135.745C514.662 153.614 522.845 164.636 536.205 164.636C549.565 164.636 557.748 153.614 557.748 135.745C557.748 117.709 549.565 106.854 536.205 106.854C522.845 106.854 514.662 117.709 514.662 135.745ZM582.733 118.21C586.24 100.341 600.936 89.486 620.308 89.486C642.185 89.486 656.046 102.178 656.046 126.56V156.787C656.046 161.129 657.716 162.799 661.39 162.799H665.398V180H660.555C649.867 180 643.521 174.322 641.851 166.473C638.344 174.99 627.489 182.004 613.795 182.004C595.759 182.004 581.23 172.485 581.23 156.787C581.23 138.584 594.423 132.071 615.966 128.23L636.674 124.222C636.34 112.699 629.827 106.854 619.807 106.854C610.956 106.854 604.61 112.031 602.94 119.379L582.733 118.21ZM601.771 155.785C601.938 161.129 606.614 165.304 616.467 165.304C628.157 165.304 636.841 157.121 636.841 143.594V140.421L620.642 143.26C609.453 145.097 601.604 146.6 601.771 155.785Z" fill="#D9D9D9"/>
<path d="M259.496 135.942C252.661 171.284 227.799 189.906 195.803 183.719C170.081 178.745 149.685 157.445 156.194 117.05L157.61 109.731L234.777 124.653C236.744 105.509 229.477 92.605 214.001 89.6125C203.963 87.6713 193.798 91.9971 187.634 101.435L162.397 93.9518C172.836 73.625 194.994 63.3745 218.207 67.8634C250.203 74.0507 266.33 100.599 259.496 135.942ZM230.793 141.889L180.603 132.184C180.094 150.526 188.716 159.786 200.009 161.97C214.02 164.679 225.042 157.048 230.793 141.889Z" fill="#A9A9A9"/>
<path d="M299.2 129.894C297.07 119.244 287.911 113.706 276.409 113.706C266.611 113.706 258.091 118.179 258.517 126.912C258.73 136.497 270.232 138.84 284.29 142.248C306.229 147.36 326.038 156.945 326.038 176.967C326.038 199.119 305.803 209.556 280.243 209.556C252.979 209.556 231.253 194.433 229.549 170.79L255.961 169.512C257.452 180.801 267.25 187.404 280.243 187.404C290.68 187.404 300.052 184.848 300.052 176.115C300.052 166.956 288.124 164.826 274.705 161.631C251.914 156.093 232.531 146.934 232.531 127.338C232.531 104.973 252.979 91.554 278.326 91.554C302.608 91.554 321.778 106.038 325.399 128.616L299.2 129.894Z" fill="#D9D9D9"/>
<path d="M339.185 147.507C349.704 150.208 358.668 144.359 363.658 133.996C367.909 125.168 367.575 115.551 359.522 112.146C350.794 108.179 343.693 117.526 334.523 128.713C320.399 146.262 303.169 159.951 285.129 151.264C265.171 141.653 264.546 118.894 275.636 95.8648C287.464 71.3004 310.516 58.2869 332.557 67.0093L322.249 91.3605C311.431 87.8061 301.231 93.7692 295.594 105.476C291.066 114.879 289.303 124.432 297.171 128.221C305.423 132.195 312.517 122.372 321.218 111.668C336.095 93.5362 352.757 80.0462 370.413 88.548C390.563 98.2512 393.782 122.496 382.785 145.334C372.25 167.211 350.883 178.199 328.97 171.666L339.185 147.507Z" fill="white"/>
<path d="M29.5113 95.3438L62.4295 83.0326L113.411 167.664L96.1456 70.4229L129.263 58.0371L182.239 199.685L158.498 208.564L119.699 104.822L137.011 205.229L120.253 211.497L67.5035 124.57L106.228 228.113L82.4869 236.992L29.5113 95.3438Z" fill="white"/>
</svg>
